{"title":"Kennedy.2015.09.03.WS.SDTV.x264-XAiO","uid":12389851,"size":426234290,"categoryP":"video","categoryS":"tv_shows","magnet":"?xt=urn:btih:792789ed8487dddf9af36c5bd10aa37b14985816&amp;dn=Kennedy.2015.09.03.WS.SDTV.x264-XAiO&amp;tr=udp%3A%2F%2Ftracker.openbittorrent.com%3A80&amp;tr=udp%3A%2F%2Fopen.demonii.com%3A1337&amp;tr=udp%3A%2F%2Ftracker.coppersurfer.tk%3A6969&amp;tr=udp%3A%2F%2Fexodus.desync.com%3A6969","seeders":0,"leechers":0,"uploader":"Reive","files":1,"time":1441878124,"description":"&quot;Kennedy&quot; is a news panel show hosted by Kennedy Montgomery. Kennedy Montgomery is a libertarian that you may recognize from 90's MTV, Stossel, and the Independents.\n\n_,-'2_,-'2_,-'2_,-'2_,-'2_,-'2_,-'2_,-'2_,-'2_,-'2\n\nKennedy starts the night off talking about Donald Trump and his signing on the Republican Loyalty pledge.\n\nWe've got 3 great guests on tonight's panel. Tom Shillue, Jedediah Bila, and Charles Cooke. They continue talking about Trump and his loyalty pledge. Kennedy seems sure Trump is going to take the nomination. Charles Cooke disagrees. After a quick commercial break the panel returns to talk MORE DEFLATE GATE! Hurray! Get out the confetti and streamers guys I think this may be the 1,000,000 time! Anyway - a judge has thrown out Brady's suspension. The panel discusses.\n\nGREG GUTFELD, former host of Red Eye, is in studio to talk about a potential Biden bid. They move on to talking about the Hillary email scandal and someone from her campaign pleading the 5th in regards to the whole ordeal.\n\nOur polished party panel returns to play FACT or FICTION. The topic, Carley Fiorna.\n\nKennedy hits to street to break some laws. On tonight's K-Walking Kennedy break some dumb state laws. BEN KISSEL arrives shortly after to talk about America's bloated prison population.\n\nNightcap: Mailbag. Here's a snippet, &quot;Dear Kennedy. You suck and are so obnoxious. Shame on Fox for cramming you down our throats.&quot; -Ann Hughes\n\n_,-'2_,-'2_,-'2_,-'2_,-'2_,-'2_,-'2_,-'2_,-'2_,-'2\n\nGeneral\nComplete name                            : Kennedy.2015.09.03.WS.SDTV.x264-XAiO.mp4\nFormat                                   : MPEG-4\nFormat profile                           : Base Media\nCodec ID                                 : isom\nFile size                                : 406 MiB\nDuration                                 : 42mn 10s\nOverall bit rate                         : 1 348 Kbps\nWriting application                      : Lavf56.25.101\n\nVideo\nID                                       : 1\nFormat                                   : AVC\nFormat/Info                              : Advanced Video Codec\nFormat profile                           : High@L3\nFormat settings, CABAC                   : Yes\nFormat settings, ReFrames                : 4 frames\nCodec ID                                 : avc1\nCodec ID/Info                            : Advanced Video Coding\nDuration                                 : 42mn 10s\nBit rate                                 : 1 209 Kbps\nWidth                                    : 624 pixels\nHeight                                   : 352 pixels\nDisplay aspect ratio                     : 16:9\nFrame rate mode                          : Variable\nFrame rate                               : 29.970 fps\nMinimum frame rate                       : 9.990 fps\nMaximum frame rate                       : 29.970 fps\nColor space                              : YUV\nChroma subsampling                       : 4:2:0\nBit depth                                : 8 bits\nScan type                                : Progressive\nBits/(Pixel*Frame)                       : 0.184\nStream size                              : 365 MiB (90%)\nWriting library                          : x264 core 142 r2389 956c8d8\nEncoding settings                        : cabac=1 / ref=3 / deblock=1:0:0 / analyse=0x3:0x133 / me=hex / subme=7 / psy=1 / psy_rd=1.00:0.00 / mixed_ref=1 / me_range=16 / chroma_me=1 / trellis=1 / 8x8dct=1 / cqm=0 / deadzone=21,11 / fast_pskip=1 / chroma_qp_offset=-2 / threads=6 / lookahead_threads=1 / sliced_threads=0 / nr=0 / decimate=1 / interlaced=0 / bluray_compat=0 / constrained_intra=0 / bframes=3 / b_pyramid=2 / b_adapt=1 / b_bias=0 / direct=1 / weightb=1 / open_gop=0 / weightp=2 / keyint=250 / keyint_min=25 / scenecut=40 / intra_refresh=0 / rc_lookahead=40 / rc=crf / mbtree=1 / crf=20.0 / qcomp=0.60 / qpmin=10 / qpmax=51 / qpstep=4 / ip_ratio=1.40 / aq=1:1.00\n\nAudio\nID                                       : 2\nFormat                                   : AAC\nFormat/Info                              : Advanced Audio Codec\nFormat profile                           : LC\nCodec ID                                 : 40\nDuration                                 : 42mn 10s\nBit rate mode                            : Constant\nBit rate                                 : 128 Kbps\nChannel(s)                               : 2 channels\nChannel positions                        : Front: L R\nSampling rate                            : 48.0 KHz\nCompression mode                         : Lossy\nStream size                              : 38.6 MiB (9%)\nLanguage                                 : unk","torrent":{"xt":"urn:btih:792789ed8487dddf9af36c5bd10aa37b14985816","amp;dn":"Kennedy.2015.09.03.WS.SDTV.x264-XAiO","amp;tr":["udp%3A%2F%2Ftracker.openbittorrent.com%3A80","udp%3A%2F%2Fopen.demonii.com%3A1337","udp%3A%2F%2Ftracker.coppersurfer.tk%3A6969","udp%3A%2F%2Fexodus.desync.com%3A6969"],"infoHash":"792789ed8487dddf9af36c5bd10aa37b14985816","infoHashBuffer":{"type":"Buffer","data":[121,39,137,237,132,135,221,223,154,243,108,91,209,10,163,123,20,152,88,22]},"announce":[],"urlList":[]}}